<svg width="615" height="512" viewBox="0 0 615 512" fill="none" xmlns="http://www.w3.org/2000/svg">
<path d="M450.487 256C450.493 289.434 440.893 322.007 423.071 349.03C405.248 376.053 380.121 396.132 351.309 406.375C322.497 416.619 291.484 416.499 262.738 406.032C233.991 395.566 208.993 375.293 191.342 348.133C178.204 327.917 169.577 304.558 166.163 279.959C162.75 255.361 164.647 230.22 171.699 206.585C178.752 182.951 190.761 161.491 206.748 143.957C222.734 126.422 242.245 113.308 263.691 105.683C285.137 98.0585 307.91 96.1394 330.155 100.082C352.399 104.025 373.486 113.718 391.695 128.371C409.905 143.025 424.722 162.224 434.939 184.403C445.156 206.582 450.483 231.115 450.487 256Z" fill="white"/>
<path d="M307.5 415.64C286.295 415.703 265.342 410.564 246.154 400.593C223.813 388.973 204.52 371.257 190.096 349.117L190.004 348.965C174.528 325.099 165.309 296.981 163.362 267.703C161.414 238.425 166.813 209.121 178.965 183.012C191.116 156.904 209.551 135.002 232.24 119.715C254.93 104.428 280.996 96.3484 307.574 96.3637C334.151 96.3791 360.21 104.489 382.885 119.802C405.56 135.115 423.973 157.038 436.1 183.161C448.228 209.283 453.599 238.594 451.623 267.87C449.648 297.145 440.402 325.252 424.904 349.1C410.482 371.254 391.183 388.977 368.831 400.593C349.649 410.566 328.7 415.705 307.5 415.64ZM192.679 347.283C206.81 368.895 225.689 386.178 247.537 397.502C266.327 407.21 286.818 412.242 307.561 412.242C328.305 412.242 348.796 407.21 367.586 397.502C389.463 386.143 408.355 368.805 422.474 347.13C437.645 323.784 446.693 296.267 448.622 267.608C450.551 238.949 445.287 210.257 433.409 184.689C421.53 159.12 403.498 137.666 381.295 122.686C359.092 107.705 333.579 99.7791 307.561 99.7791C281.544 99.7791 256.031 107.705 233.828 122.686C211.625 137.666 193.593 159.12 181.714 184.689C169.836 210.257 164.572 238.949 166.501 267.608C168.43 296.267 177.478 323.784 192.649 347.13L192.679 347.283Z" fill="#093F68"/>
<path d="M372.336 220.047H256.071V299.527H372.336V220.047Z" fill="#68E1FD"/>
<path d="M372.352 301.226H256.071C255.663 301.226 255.272 301.047 254.983 300.728C254.695 300.41 254.533 299.978 254.533 299.527V220.047C254.533 219.597 254.695 219.165 254.983 218.846C255.272 218.528 255.663 218.349 256.071 218.349H372.352C372.759 218.349 373.151 218.528 373.439 218.846C373.727 219.165 373.889 219.597 373.889 220.047V299.527C373.889 299.978 373.727 300.41 373.439 300.728C373.151 301.047 372.759 301.226 372.352 301.226ZM257.608 297.829H370.814V221.745H257.608V297.829Z" fill="#093F68"/>
<path d="M214.543 241.615C214.543 241.615 201.966 308.749 201.505 327.363C201.043 345.976 224.567 356.522 235.883 341.442C247.199 326.361 277.18 262.793 277.18 262.793L214.543 241.615Z" fill="#68E1FD"/>
<path d="M221.923 350.358C219.167 350.331 216.438 349.755 213.866 348.659C205.195 345.042 199.737 336.652 200.029 327.278C200.475 308.732 212.59 243.976 213.098 241.242C213.14 241.01 213.227 240.79 213.351 240.597C213.476 240.404 213.636 240.242 213.82 240.121C214.003 240 214.207 239.922 214.419 239.893C214.631 239.864 214.846 239.884 215.05 239.951L277.642 261.095C277.858 261.168 278.056 261.292 278.224 261.46C278.391 261.627 278.523 261.833 278.61 262.063C278.706 262.289 278.756 262.535 278.756 262.785C278.756 263.034 278.706 263.281 278.61 263.506C277.38 266.105 248.491 327.431 237.098 342.494C235.262 344.976 232.946 346.97 230.319 348.331C227.693 349.692 224.824 350.384 221.923 350.358ZM215.773 243.789C213.759 254.658 203.473 310.855 203.104 327.397C202.919 335.311 207.593 342.41 215.019 345.517C220.847 347.946 229.103 347.861 234.761 340.423C244.847 327.057 270.123 274.325 275.028 263.846L215.773 243.789Z" fill="#093F68"/>
<path d="M235.345 201.654H257.378C259.123 201.654 260.797 202.42 262.031 203.783C263.265 205.146 263.958 206.995 263.958 208.923V227.808H228.749V208.889C228.757 206.964 229.456 205.122 230.693 203.765C231.929 202.409 233.603 201.65 235.345 201.654Z" fill="#FFBC0E"/>
<path d="M263.973 229.456H228.749C228.342 229.456 227.95 229.277 227.662 228.958C227.374 228.64 227.212 228.208 227.212 227.757V208.889C227.212 206.506 228.069 204.221 229.594 202.536C231.119 200.852 233.188 199.905 235.345 199.905H257.378C259.535 199.905 261.603 200.852 263.129 202.536C264.654 204.221 265.511 206.506 265.511 208.889V227.757C265.511 228.208 265.349 228.64 265.061 228.958C264.772 229.277 264.381 229.456 263.973 229.456ZM230.287 226.059H262.436V208.889C262.42 207.418 261.88 206.012 260.934 204.976C259.987 203.94 258.71 203.357 257.378 203.353H235.345C234.005 203.357 232.721 203.947 231.773 204.994C230.825 206.041 230.291 207.46 230.287 208.94V226.059Z" fill="#093F68"/>
<path d="M246.354 286.603C264.457 286.603 279.133 270.393 279.133 250.396C279.133 230.399 264.457 214.188 246.354 214.188C228.25 214.188 213.574 230.399 213.574 250.396C213.574 270.393 228.25 286.603 246.354 286.603Z" fill="#68E1FD"/>
<path d="M246.354 288.268C239.563 288.268 232.925 286.044 227.28 281.876C221.634 277.709 217.233 271.787 214.635 264.857C212.036 257.928 211.356 250.303 212.681 242.946C214.006 235.59 217.275 228.833 222.077 223.529C226.878 218.225 232.996 214.614 239.656 213.15C246.316 211.687 253.219 212.438 259.492 215.308C265.765 218.179 271.127 223.039 274.9 229.276C278.672 235.512 280.686 242.844 280.686 250.345C280.678 260.4 277.058 270.04 270.621 277.15C264.184 284.26 255.457 288.259 246.354 288.268ZM246.354 215.835C240.171 215.835 234.127 217.861 228.986 221.655C223.846 225.45 219.839 230.843 217.474 237.153C215.109 243.463 214.491 250.406 215.698 257.104C216.905 263.802 219.884 269.954 224.257 274.782C228.63 279.609 234.201 282.896 240.265 284.227C246.329 285.557 252.615 284.871 258.326 282.255C264.037 279.639 268.918 275.211 272.351 269.531C275.783 263.851 277.614 257.174 277.611 250.345C277.591 241.201 274.289 232.439 268.43 225.98C262.57 219.52 254.632 215.891 246.354 215.886V215.835Z" fill="#093F68"/>
<path d="M277.18 309.361C288.55 309.361 297.768 299.179 297.768 286.62C297.768 274.061 288.55 263.88 277.18 263.88C265.811 263.88 256.593 274.061 256.593 286.62C256.593 299.179 265.811 309.361 277.18 309.361Z" fill="#F56132"/>
<path d="M277.181 311.059C272.807 311.059 268.531 309.627 264.894 306.944C261.256 304.261 258.42 300.447 256.744 295.984C255.069 291.522 254.628 286.611 255.478 281.871C256.328 277.132 258.43 272.778 261.52 269.358C264.609 265.938 268.547 263.606 272.836 262.658C277.125 261.709 281.572 262.186 285.615 264.027C289.659 265.869 293.117 268.994 295.554 273.006C297.991 277.018 299.296 281.738 299.305 286.569C299.309 293.057 296.981 299.281 292.832 303.873C288.684 308.465 283.054 311.05 277.181 311.059ZM277.181 265.578C273.411 265.578 269.726 266.814 266.592 269.128C263.459 271.443 261.017 274.732 259.577 278.58C258.136 282.428 257.762 286.661 258.5 290.744C259.239 294.827 261.058 298.577 263.727 301.517C266.396 304.458 269.794 306.458 273.492 307.264C277.191 308.07 281.022 307.646 284.503 306.046C287.983 304.446 290.955 301.741 293.042 298.274C295.13 294.807 296.239 290.733 296.23 286.569C296.214 280.999 294.2 275.663 290.63 271.728C287.06 267.794 282.224 265.583 277.181 265.578Z" fill="#093F68"/>
<path d="M277.18 301.939C284.84 301.939 291.049 295.081 291.049 286.62C291.049 278.16 284.84 271.302 277.18 271.302C269.521 271.302 263.312 278.16 263.312 286.62C263.312 295.081 269.521 301.939 277.18 301.939Z" fill="#093F68"/>
<path d="M277.18 303.637C274.14 303.637 271.167 302.641 268.639 300.775C266.11 298.909 264.139 296.257 262.976 293.153C261.812 290.05 261.508 286.635 262.101 283.341C262.694 280.047 264.158 277.021 266.309 274.646C268.459 272.27 271.198 270.653 274.181 269.998C277.163 269.342 280.255 269.679 283.064 270.964C285.874 272.249 288.275 274.426 289.964 277.219C291.654 280.012 292.555 283.295 292.555 286.654C292.555 291.158 290.936 295.478 288.052 298.663C285.169 301.848 281.258 303.637 277.18 303.637ZM277.18 273.068C274.748 273.068 272.37 273.865 270.347 275.358C268.324 276.851 266.748 278.972 265.817 281.455C264.886 283.938 264.642 286.669 265.117 289.305C265.591 291.94 266.763 294.361 268.483 296.261C270.203 298.161 272.395 299.455 274.781 299.98C277.167 300.504 279.64 300.235 281.887 299.206C284.135 298.178 286.056 296.437 287.408 294.203C288.759 291.968 289.48 289.341 289.48 286.654C289.491 284.863 289.18 283.087 288.566 281.429C287.953 279.771 287.048 278.263 285.905 276.992C284.762 275.722 283.403 274.713 281.905 274.025C280.408 273.337 278.802 272.983 277.18 272.983V273.068Z" fill="#093F68"/>
<path d="M253.688 239.204L246.354 247.356L239.035 239.204V227.519L246.354 226.484L253.688 227.519V239.204Z" fill="#093F68"/>
<path d="M253.688 261.604L246.354 253.436L239.035 261.604V273.289L246.354 274.308L253.688 273.289V261.604Z" fill="#093F68"/>
<path d="M256.501 258.497L249.121 250.396L256.501 242.312H267.079L268.002 250.396L267.079 258.497H256.501Z" fill="#093F68"/>
<path d="M236.221 258.497L243.601 250.396L236.221 242.312H225.643L224.721 250.396L225.643 258.497H236.221Z" fill="#093F68"/>
<path d="M401.165 241.615C401.165 241.615 413.741 308.749 414.203 327.363C414.664 345.976 391.14 356.522 379.824 341.442C368.508 326.361 338.511 262.793 338.511 262.793L401.165 241.615Z" fill="#68E1FD"/>
<path d="M393.784 350.358C390.891 350.384 388.029 349.694 385.409 348.339C382.788 346.984 380.476 344.999 378.64 342.528C367.278 327.465 338.373 266.105 337.128 263.54C337.032 263.315 336.982 263.068 336.982 262.819C336.982 262.569 337.032 262.323 337.128 262.097C337.215 261.867 337.347 261.661 337.514 261.494C337.682 261.326 337.88 261.202 338.096 261.129L400.734 239.985C400.938 239.918 401.153 239.898 401.365 239.927C401.577 239.956 401.781 240.034 401.964 240.155C402.152 240.27 402.315 240.431 402.44 240.625C402.565 240.819 402.649 241.041 402.687 241.276C403.209 244.01 415.309 308.766 415.771 327.312C415.986 336.686 410.543 345.076 401.933 348.693C399.331 349.79 396.57 350.354 393.784 350.358ZM340.741 263.744C345.707 274.223 370.922 326.955 380.992 340.321C386.666 347.827 394.922 347.912 400.749 345.416C408.175 342.308 412.849 335.226 412.665 327.295C412.265 310.753 401.995 254.556 399.996 243.687L340.741 263.744Z" fill="#093F68"/>
<path d="M386.958 227.723H351.749V208.838C351.749 206.91 352.442 205.062 353.677 203.698C354.911 202.335 356.584 201.569 358.33 201.569H380.362C382.107 201.569 383.781 202.335 385.015 203.698C386.249 205.062 386.943 206.91 386.943 208.838V227.723H386.958Z" fill="#FFBC0E"/>
<path d="M386.958 229.456H351.734C351.326 229.456 350.935 229.277 350.647 228.958C350.358 228.64 350.196 228.208 350.196 227.757V208.889C350.196 206.506 351.053 204.221 352.579 202.536C354.104 200.852 356.173 199.905 358.33 199.905H380.362C382.519 199.905 384.588 200.852 386.113 202.536C387.639 204.221 388.496 206.506 388.496 208.889V227.757C388.496 228.208 388.334 228.64 388.045 228.958C387.757 229.277 387.366 229.456 386.958 229.456ZM353.271 226.059H385.421V208.889C385.416 207.409 384.882 205.99 383.935 204.943C382.987 203.896 381.702 203.306 380.362 203.302H358.33C356.989 203.306 355.705 203.896 354.757 204.943C353.81 205.99 353.275 207.409 353.271 208.889V226.059Z" fill="#093F68"/>
<path d="M369.338 286.603C387.442 286.603 402.118 270.393 402.118 250.396C402.118 230.399 387.442 214.188 369.338 214.188C351.235 214.188 336.559 230.399 336.559 250.396C336.559 270.393 351.235 286.603 369.338 286.603Z" fill="#68E1FD"/>
<path d="M369.338 288.268C362.548 288.268 355.91 286.044 350.264 281.876C344.618 277.709 340.218 271.787 337.619 264.857C335.021 257.928 334.341 250.303 335.666 242.946C336.99 235.59 340.26 228.833 345.062 223.529C349.863 218.225 355.981 214.614 362.64 213.15C369.3 211.687 376.203 212.438 382.477 215.308C388.75 218.179 394.112 223.039 397.885 229.276C401.657 235.512 403.671 242.844 403.671 250.345C403.662 260.4 400.043 270.04 393.606 277.15C387.169 284.26 378.441 288.259 369.338 288.268ZM369.338 215.835C363.155 215.835 357.112 217.861 351.971 221.655C346.83 225.45 342.824 230.843 340.459 237.153C338.093 243.463 337.475 250.406 338.683 257.104C339.89 263.802 342.868 269.954 347.241 274.782C351.614 279.609 357.185 282.896 363.25 284.227C369.314 285.557 375.599 284.871 381.311 282.255C387.022 279.639 391.903 275.211 395.335 269.531C398.768 263.851 400.599 257.174 400.596 250.345C400.575 241.201 397.274 232.439 391.414 225.98C385.555 219.52 377.616 215.891 369.338 215.886V215.835Z" fill="#093F68"/>
<path d="M338.511 309.361C349.881 309.361 359.098 299.179 359.098 286.62C359.098 274.061 349.881 263.88 338.511 263.88C327.141 263.88 317.924 274.061 317.924 286.62C317.924 299.179 327.141 309.361 338.511 309.361Z" fill="#F56132"/>
<path d="M338.511 311.059C334.138 311.056 329.864 309.621 326.229 306.936C322.593 304.25 319.76 300.435 318.086 295.973C316.413 291.51 315.974 286.599 316.826 281.861C317.678 277.123 319.781 272.77 322.872 269.352C325.962 265.934 329.9 263.604 334.188 262.656C338.476 261.709 342.923 262.187 346.965 264.029C351.008 265.871 354.465 268.996 356.901 273.008C359.337 277.02 360.642 281.739 360.651 286.569C360.653 289.783 360.082 292.966 358.971 295.936C357.859 298.906 356.229 301.605 354.173 303.879C352.117 306.153 349.676 307.958 346.989 309.19C344.302 310.421 341.421 311.057 338.511 311.059ZM338.511 265.578C334.742 265.582 331.059 266.82 327.927 269.136C324.796 271.453 322.357 274.743 320.918 278.592C319.48 282.44 319.108 286.673 319.849 290.755C320.589 294.837 322.409 298.584 325.079 301.523C327.748 304.462 331.147 306.461 334.844 307.265C338.542 308.07 342.373 307.645 345.852 306.044C349.332 304.443 352.303 301.738 354.389 298.272C356.476 294.805 357.586 290.733 357.576 286.569C357.56 280.996 355.544 275.657 351.971 271.722C348.397 267.788 343.557 265.578 338.511 265.578Z" fill="#093F68"/>
<path d="M338.511 301.939C346.171 301.939 352.38 295.081 352.38 286.62C352.38 278.16 346.171 271.302 338.511 271.302C330.852 271.302 324.643 278.16 324.643 286.62C324.643 295.081 330.852 301.939 338.511 301.939Z" fill="#093F68"/>
<path d="M338.511 303.637C335.47 303.637 332.498 302.641 329.969 300.775C327.441 298.909 325.47 296.257 324.307 293.153C323.143 290.05 322.839 286.635 323.432 283.341C324.025 280.047 325.489 277.021 327.64 274.646C329.79 272.27 332.529 270.653 335.512 269.998C338.494 269.342 341.586 269.679 344.395 270.964C347.205 272.249 349.606 274.426 351.295 277.219C352.985 280.012 353.886 283.295 353.886 286.654C353.886 291.158 352.267 295.478 349.383 298.663C346.5 301.848 342.589 303.637 338.511 303.637ZM338.511 273.068C336.079 273.068 333.701 273.865 331.678 275.358C329.655 276.851 328.079 278.972 327.148 281.455C326.217 283.938 325.973 286.669 326.448 289.305C326.922 291.94 328.094 294.361 329.814 296.261C331.534 298.161 333.726 299.455 336.112 299.98C338.498 300.504 340.971 300.235 343.218 299.206C345.466 298.178 347.387 296.437 348.738 294.203C350.09 291.968 350.811 289.341 350.811 286.654C350.822 284.863 350.511 283.087 349.897 281.429C349.284 279.771 348.379 278.263 347.236 276.992C346.093 275.722 344.734 274.713 343.236 274.025C341.739 273.337 340.133 272.983 338.511 272.983V273.068Z" fill="#093F68"/>
<path d="M355.839 258.497C359.889 258.497 363.173 254.87 363.173 250.396C363.173 245.922 359.889 242.295 355.839 242.295C351.789 242.295 348.505 245.922 348.505 250.396C348.505 254.87 351.789 258.497 355.839 258.497Z" fill="#093F68"/>
<path d="M381.546 258.497C385.596 258.497 388.88 254.87 388.88 250.396C388.88 245.922 385.596 242.295 381.546 242.295C377.496 242.295 374.212 245.922 374.212 250.396C374.212 254.87 377.496 258.497 381.546 258.497Z" fill="#093F68"/>
<path d="M368.693 244.299C372.743 244.299 376.026 240.672 376.026 236.198C376.026 231.724 372.743 228.097 368.693 228.097C364.642 228.097 361.359 231.724 361.359 236.198C361.359 240.672 364.642 244.299 368.693 244.299Z" fill="#093F68"/>
<path d="M368.693 272.694C372.743 272.694 376.026 269.067 376.026 264.593C376.026 260.119 372.743 256.493 368.693 256.493C364.642 256.493 361.359 260.119 361.359 264.593C361.359 269.067 364.642 272.694 368.693 272.694Z" fill="#093F68"/>
<path d="M303.733 246.557H289.773C289.365 246.557 288.974 246.379 288.685 246.06C288.397 245.742 288.235 245.31 288.235 244.859C288.235 244.409 288.397 243.977 288.685 243.658C288.974 243.34 289.365 243.161 289.773 243.161H303.733C304.141 243.161 304.532 243.34 304.82 243.658C305.109 243.977 305.271 244.409 305.271 244.859C305.271 245.31 305.109 245.742 304.82 246.06C304.532 246.379 304.141 246.557 303.733 246.557Z" fill="#093F68"/>
<path d="M328.179 246.557H314.204C313.796 246.557 313.405 246.379 313.116 246.06C312.828 245.742 312.666 245.31 312.666 244.859C312.666 244.409 312.828 243.977 313.116 243.658C313.405 243.34 313.796 243.161 314.204 243.161H328.179C328.587 243.161 328.978 243.34 329.267 243.658C329.555 243.977 329.717 244.409 329.717 244.859C329.717 245.31 329.555 245.742 329.267 246.06C328.978 246.379 328.587 246.557 328.179 246.557Z" fill="#093F68"/>
<path d="M283.623 299.527C283.56 299.691 283.488 299.85 283.407 300.003L283.238 300.411L279.64 309.191L246.815 399.048C224.699 387.557 205.605 370.02 191.342 348.099C190.558 332.356 189.804 315.424 189.651 307.017C189.266 279.386 191.188 262.538 195.939 258.259C198.16 256.236 201.006 255.247 203.875 255.5C206.745 255.754 209.412 257.23 211.314 259.617L211.575 259.957C211.575 259.957 214.65 286.451 221.877 300.58C225.536 307.679 238.189 313.623 249.874 317.75L250.29 317.903C250.29 317.648 251.581 314.948 253.272 311.263V311.178C254.81 307.781 256.855 303.434 258.669 299.51L259.376 298.033C261.206 294.076 262.789 290.679 263.481 289.168L263.881 288.336C264.524 287.021 265.403 285.865 266.464 284.939C268.383 283.091 270.821 282.034 273.365 281.947C275.909 281.859 278.402 282.747 280.421 284.459C282.44 286.171 283.861 288.602 284.441 291.339C285.022 294.077 284.727 296.952 283.607 299.477L283.623 299.527Z" fill="#FFC9B0"/>
<path d="M246.815 400.746C246.592 400.747 246.372 400.695 246.169 400.593C223.821 388.978 204.523 371.262 190.096 349.118C189.914 348.841 189.813 348.509 189.804 348.167C188.759 327.057 188.267 313.997 188.113 307.068C187.575 268.194 191.757 259.855 194.97 256.968C197.487 254.653 200.724 253.519 203.988 253.808C207.253 254.097 210.285 255.786 212.436 258.513L212.621 258.751C212.844 259.044 212.997 259.395 213.067 259.77C213.067 260.025 216.142 286.094 223.183 299.748C225.936 305.098 235.007 310.651 249.444 315.848C249.874 314.863 250.612 313.25 251.873 310.515C251.893 310.461 251.919 310.41 251.95 310.363C252.965 308.138 254.149 305.573 255.348 302.992L260.191 292.615C261.037 290.764 261.729 289.219 262.128 288.421L262.543 287.554C263.285 286.045 264.3 284.721 265.526 283.665C267.497 281.934 269.872 280.855 272.376 280.554C274.88 280.254 277.409 280.743 279.671 281.967C284.622 284.973 287.958 293.431 285.022 300.258C284.944 300.466 284.857 300.67 284.76 300.869L281.04 309.938L248.245 399.676C248.167 399.891 248.051 400.086 247.903 400.25C247.755 400.413 247.578 400.542 247.384 400.627C247.203 400.706 247.01 400.747 246.815 400.746ZM192.849 347.538C206.617 368.546 224.877 385.466 246 396.789L278.287 308.647L282.085 299.375C282.158 299.252 282.22 299.121 282.27 298.984V298.882C283.24 296.705 283.497 294.223 282.995 291.86C282.493 289.497 281.264 287.4 279.518 285.927C277.772 284.453 275.618 283.695 273.422 283.781C271.226 283.867 269.126 284.793 267.479 286.4C266.577 287.174 265.829 288.145 265.28 289.253L264.88 290.068C264.496 290.9 263.82 292.395 262.959 294.246L258.115 304.622C256.916 307.238 255.717 309.819 254.687 312.044C254.692 312.095 254.692 312.146 254.687 312.197C253.857 314.031 251.996 318.073 251.812 318.582C251.759 318.795 251.665 318.992 251.538 319.162C251.411 319.332 251.253 319.47 251.074 319.567C250.888 319.66 250.686 319.707 250.482 319.707C250.278 319.707 250.076 319.66 249.89 319.567L249.475 319.415C233.577 313.793 223.86 307.764 220.616 301.463C213.743 288.132 210.653 264.593 210.192 260.704C208.55 258.675 206.261 257.427 203.805 257.221C201.348 257.015 198.915 257.868 197.015 259.6C194.14 262.216 190.865 272.541 191.296 307.017C191.296 313.844 191.818 326.734 192.849 347.538Z" fill="#093F68"/>
<path d="M425.349 307.034C425.226 315.441 424.442 332.373 423.658 348.116C409.396 370.039 390.302 387.577 368.185 399.065L335.313 309.055L331.593 299.969V299.816L331.454 299.493C330.25 296.778 329.998 293.666 330.749 290.758C331.5 287.85 333.2 285.353 335.521 283.748C337.841 282.144 340.617 281.546 343.314 282.07C346.01 282.594 348.435 284.203 350.12 286.586C350.524 287.112 350.879 287.681 351.18 288.285L352.072 290.204L354.563 295.519L356.008 298.61C356.119 298.883 356.242 299.15 356.377 299.409C360.175 307.577 364.68 317.309 364.803 317.801L365.817 317.428C377.333 313.318 389.618 307.459 393.216 300.445C400.503 286.315 403.517 259.821 403.517 259.821C403.783 259.466 404.065 259.125 404.363 258.802C406.317 256.705 408.903 255.476 411.625 255.351C414.348 255.226 417.017 256.212 419.123 258.123C423.797 262.555 425.734 279.403 425.349 307.034Z" fill="#FFC9B0"/>
<path d="M368.185 400.746C367.99 400.747 367.797 400.706 367.616 400.627C367.422 400.542 367.245 400.413 367.097 400.25C366.949 400.086 366.833 399.891 366.755 399.676L333.884 309.666L330.224 300.716V300.631C330.132 300.428 330.071 300.309 330.009 300.156C327.088 293.363 330.409 284.871 335.375 281.865C338.02 280.474 341.004 280.074 343.873 280.727C346.743 281.38 349.341 283.05 351.273 285.483C351.74 286.105 352.152 286.776 352.503 287.486C352.503 287.486 352.856 288.234 353.41 289.457L355.9 294.755C355.903 294.812 355.903 294.868 355.9 294.925C356.331 295.859 356.808 296.861 357.3 297.897C357.4 298.153 357.513 298.402 357.638 298.644C362.604 309.327 364.664 313.827 365.541 315.78C379.993 310.583 389.049 305.047 391.801 299.714C398.858 286.026 401.887 259.974 401.918 259.719C401.95 259.403 402.062 259.103 402.241 258.853C402.548 258.446 402.871 258.072 403.194 257.698C405.418 255.302 408.365 253.896 411.469 253.752C414.573 253.608 417.616 254.735 420.014 256.917C423.228 259.804 427.41 268.143 426.872 307C426.764 313.929 426.226 327.006 425.18 348.15C425.16 348.469 425.059 348.775 424.888 349.033C410.467 371.186 391.167 388.909 368.816 400.525C368.622 400.649 368.407 400.724 368.185 400.746ZM332.823 299.069V299.171L336.605 308.393L368.892 396.704C390.017 385.383 408.277 368.463 422.044 347.453C423.074 326.649 423.581 313.776 423.704 306.932C424.181 272.457 420.86 262.131 417.985 259.516C416.171 257.867 413.871 257.016 411.524 257.126C409.178 257.235 406.95 258.298 405.27 260.11C405.116 260.263 404.962 260.45 404.808 260.619C404.347 264.492 401.257 288.03 394.384 301.379C391.186 307.594 381.669 313.555 366.125 319.109L365.095 319.482C364.898 319.553 364.69 319.579 364.484 319.558C364.278 319.538 364.078 319.472 363.895 319.364C363.716 319.254 363.559 319.106 363.432 318.928C363.305 318.75 363.212 318.546 363.157 318.328C363.004 317.954 361.42 314.405 354.84 300.258C354.701 299.986 354.563 299.68 354.425 299.358C353.963 298.39 353.471 297.337 353.025 296.352V296.233L350.565 291.002L349.674 289.083C349.424 288.577 349.131 288.099 348.797 287.656C347.354 285.587 345.265 284.184 342.937 283.721C340.609 283.257 338.209 283.766 336.202 285.149C334.195 286.532 332.725 288.689 332.078 291.202C331.43 293.715 331.652 296.404 332.7 298.746L332.823 299.069Z" fill="#093F68"/>
<path d="M310.575 221.745C310.252 221.745 309.938 221.633 309.676 221.425C309.414 221.216 309.218 220.922 309.116 220.584C309.014 220.246 309.011 219.881 309.107 219.541C309.204 219.2 309.394 218.902 309.652 218.688C309.745 218.688 318.678 211.131 319.031 200.652C319.246 194.063 316.064 187.592 309.576 181.377C295.292 167.79 286.897 145.933 288.681 127.133C289.134 120.768 291.03 114.631 294.195 109.288C297.361 103.946 301.693 99.5696 306.793 96.5635C306.97 96.452 307.166 96.3803 307.369 96.3524C307.572 96.3244 307.778 96.3409 307.975 96.4008C308.172 96.4608 308.356 96.563 308.517 96.7016C308.679 96.8403 308.814 97.0126 308.914 97.2089C309.015 97.4052 309.08 97.6215 309.106 97.8455C309.131 98.0695 309.116 98.2968 309.062 98.5144C309.008 98.732 308.915 98.9357 308.789 99.1138C308.664 99.292 308.508 99.441 308.33 99.5526C303.678 102.308 299.726 106.31 296.838 111.191C293.95 116.072 292.219 121.677 291.802 127.49C290.126 145.237 298.106 165.871 311.636 178.812C318.878 185.741 322.398 193.129 322.168 200.89C321.753 213.016 311.974 221.168 311.559 221.508C311.264 221.707 310.918 221.79 310.575 221.745Z" fill="#093F68"/>
</svg>
